# xmcd CD database file
#
# Track frame offsets:
#	150
#	16557
#	76992
#	122212
#	169492
#	184432
#	252897
#
# Disc length: 3647 seconds
#
# Revision: 0
# Processed by: cddbd v1.5.1PL0 Copyright (c) Steve Scherf et al.
# Submitted via: CDex 1.51
#
DISCID=550e3d07
DTITLE=Per Henrik Wallin Trio - Coyote
DYEAR=1987
DGENRE=Jazz
TTITLE0=Coyote
TTITLE1=The strange adventures of Jesper Klint
TTITLE2=This spring is here
TTITLE3=Mingelin 7-8
TTITLE4=Mingelin 5
TTITLE5=Västgötajazzen
TTITLE6=Peterson-Berger
EXTD=YEAR: 1987
EXTT0=
EXTT1=
EXTT2=
EXTT3=
EXTT4=
EXTT5=
EXTT6=
PLAYORDER=
